<svg width="56" height="59" viewBox="0 0 56 59" fill="none" xmlns="http://www.w3.org/2000/svg">
<path d="M0 28C0 12.544 12.544 0 28 0C43.456 0 56 12.544 56 28C56 43.456 43.456 56 28 56C12.544 56 0 43.456 0 28Z" fill="#EDC18D"/>
<path d="M18.5017 28.3185C18.257 27.8046 18.02 27.2842 17.7925 26.762C17.3466 25.7409 16.9289 24.695 16.7418 23.5882C16.1354 20.0173 17.8829 16.1237 20.391 13.8343C23.9607 10.578 29.0175 9.34768 32.9505 6.45874C32.7325 7.87882 32.0141 9.15919 30.9396 10.0427C32.7805 8.54392 38.266 11.0129 39.9808 11.9385C42.8239 13.451 45.24 15.7278 46.9861 18.5399C45.135 17.7448 43.1199 17.4723 41.139 17.7493C42.6791 19.3256 44.2815 21.0072 44.8645 23.1846C42.1008 21.0797 37.6877 22.0926 36.0042 25.2303C34.9239 27.2397 34.9395 29.6872 34.2895 31.8959C33.6036 34.2347 31.7533 35.7204 29.5772 36.343C27.9373 36.8173 24.7105 37.0314 23.225 36.0136C22.7745 35.7056 22.4455 35.2345 22.1431 34.77C20.7851 32.7141 19.5682 30.5581 18.5017 28.3185V28.3185Z" fill="#00214E"/>
<ellipse cx="20.2211" cy="28.9724" rx="2.65" ry="2.8" fill="#845161"/>
<ellipse cx="21.1346" cy="28.8077" rx="2.49412" ry="2.63529" fill="#69303A"/>
<path d="M45.4101 49.2691C34.9897 57.7467 20.4551 57.6789 10.1059 49.1043L17.6911 45.3474C18.0524 45.168 18.3991 44.9575 18.7277 44.7182C18.8275 44.6458 18.9273 44.57 19.0224 44.4909C19.8479 43.8235 20.5274 42.9758 21.0145 42.0055C21.6381 40.762 21.8438 39.3883 21.8532 37.9883C21.8532 37.5255 21.8438 37.0611 21.8314 36.5966C21.8189 36.1321 21.8002 35.6396 21.7955 35.1603C21.7893 34.6388 21.7841 34.1167 21.7799 33.594L22.0917 33.7587L22.9023 34.2018L23.278 34.2693L27.624 35.05L32.475 35.9229L32.6215 41.1935L32.6823 43.3825L32.6932 43.7531V43.8074L34.5794 44.6178L45.4101 49.2691Z" fill="#845161"/>
<path d="M32.6792 43.3709L32.4392 43.3973C30.0932 43.6146 27.7753 42.7324 26.0994 40.9843L21.8314 35.493C21.8173 35.0154 21.8002 35.6298 21.7955 35.1505C21.7893 34.6289 21.7841 34.1068 21.7799 33.5841L22.0917 33.7488L22.9023 34.1919L23.278 34.2594L27.624 35.0401L32.475 35.913L32.6216 41.1836L32.6792 43.3709Z" fill="#69303A"/>
<path d="M21.571 23.7495C21.0849 24.2038 20.7723 24.8298 20.6919 25.5102C20.3661 28.7269 21.4931 32.5234 21.8064 35.7451L27.4837 40.1691C29.3702 41.6581 31.7805 42.1964 34.0759 41.6415C34.991 41.4126 35.5708 41.2643 35.9839 40.4886C36.782 39.0062 38.7415 33.9349 38.8693 30.3575C38.9052 29.3413 38.8818 27.7931 38.2894 26.9283C38.001 26.5083 37.853 26.4985 37.9574 25.9055C38.065 25.2862 38.2193 24.6735 38.3487 24.0592C38.5366 23.1705 38.5892 22.2559 38.5045 21.3498C38.4188 20.5262 38.4219 19.7949 38.3393 18.9566C38.2988 18.5498 38.1273 16.7693 38.1273 16.7693C37.1375 18.3439 35.351 19.1707 33.6987 19.7142C31.4509 20.4521 29.1111 20.8128 26.8321 21.4321C25.3216 21.8488 22.8789 22.4418 21.571 23.7495Z" fill="#845161"/>
<path d="M28.3067 26.2317C29.2576 26.2399 29.2576 27.7766 28.3067 27.7849H28.2646C27.3122 27.7766 27.3122 26.2399 28.2646 26.2317H28.3067Z" fill="#00214E"/>
<path d="M36.5201 25.7622C37.404 25.7622 37.404 27.1951 36.5201 27.2034H36.4812C35.5989 27.1951 35.5989 25.7688 36.4812 25.7622H36.5201Z" fill="#00214E"/>
<path d="M29.0035 33.6353C29.7523 34.5193 30.7792 35.0863 31.8936 35.2313" stroke="#00214E"/>
<path d="M26.0932 24.3886C27.5361 24.0724 29.0206 24.0278 30.4782 24.2568" stroke="#00214E"/>
<path d="M35.298 24.3985C36.1891 24.1809 37.1072 24.1136 38.0182 24.1992" stroke="#00214E"/>
<path d="M45.4101 49.2691C34.9897 57.7467 20.4551 57.6789 10.1059 49.1044L17.6911 45.3474C18.0524 45.168 18.3991 44.9576 18.7277 44.7183C18.8275 44.6458 18.9273 44.57 19.0224 44.491C22.6934 47.2514 27.7035 48.9924 32.037 46.9319C33.0689 46.4378 34.0167 45.6406 34.5779 44.6161L45.4101 49.2691Z" fill="#FF2609"/>
<path d="M30.9256 30.8632C30.6929 30.989 30.5818 31.2753 30.6638 31.5375C30.7459 31.7997 30.9967 31.9595 31.2545 31.914" stroke="#00214E"/>
<path d="M33.3277 26.0802C33.7158 27.6531 34.0385 29.2096 34.408 30.7858C34.4513 30.9305 34.4672 31.0827 34.4547 31.2338C34.3877 31.6868 33.878 31.8729 33.454 31.9701" stroke="#00214E"/>
</svg>
