<svg width="199" height="45" viewBox="0 0 199 45" fill="none" xmlns="http://www.w3.org/2000/svg">
<path fill-rule="evenodd" clip-rule="evenodd" d="M41.2473 22.5V45H43.0564H44.8655V22.5V0H43.0564H41.2473V22.5ZM3.184 3.87714C1.94948 4.40714 0.728702 5.385 0.470363 6.05071C0.211302 6.71571 0 15.1086 0 24.7014V42.1429H3.98H7.96V33.1736V24.205L9.56864 25.3164C10.6092 26.0364 12.7787 26.4286 15.7196 26.4286H20.2618V34.2857V42.1429H24.2418H28.2218V22.5V2.85714H24.2418H20.2618V10.7143V18.5714H14.1109H7.96V10.7143C7.96 3.69714 7.82468 2.86 6.69364 2.885C5.9975 2.90072 4.4178 3.34714 3.184 3.87714ZM56.9864 12.9143C55.8799 13.5507 55.72 14.8536 55.72 23.25V32.8571H57.8909H60.0618V28.5714V24.2857H62.9564H65.8509V28.5714V32.8571H68.3836H70.9164V22.5V12.1429H68.3836H65.8509V16.4286V20.7143H62.9564H60.0618V16.4286C60.0618 13.4643 59.7825 12.1493 59.1573 12.1643C58.6601 12.1764 57.6832 12.5136 56.9864 12.9143ZM77.2482 12.9143C76.1417 13.5507 75.9818 14.8536 75.9818 23.25V32.8571H78.1527H80.3236V22.5C80.3236 14.6786 80.1022 12.1479 79.4191 12.1643C78.922 12.1764 77.945 12.5136 77.2482 12.9143ZM85.3761 12.6786C85.3696 12.9736 86.9145 17.6486 88.8104 23.0679L92.2579 32.9214L94.4157 32.7107C96.4824 32.5086 96.7176 32.1093 100.016 23.2143C101.909 18.1071 103.463 13.5271 103.469 13.0357C103.475 12.545 102.879 12.1429 102.145 12.1429C101.41 12.1429 100.29 12.7093 99.6556 13.4021C99.021 14.0943 97.5759 17.1443 96.4448 20.18L94.3882 25.6986L91.9742 18.9207C89.6803 12.4786 89.4574 12.1429 87.4746 12.1429C86.3277 12.1429 85.3833 12.3836 85.3761 12.6786ZM108.949 13.7307C108.077 14.9579 107.822 17.3064 107.822 24.0879V32.8571H113.973H120.124V30.7143C120.124 28.5929 120.083 28.5714 116.144 28.5714C112.204 28.5714 112.164 28.55 112.164 26.4286C112.164 24.3393 112.253 24.2857 115.704 24.2857C118.265 24.2857 119.367 23.9729 119.684 23.1557C119.926 22.5343 120.124 21.7307 120.124 21.37C120.124 21.0093 118.333 20.7143 116.144 20.7143C112.204 20.7143 112.164 20.6929 112.164 18.5714C112.164 16.45 112.204 16.4286 116.144 16.4286C120.083 16.4286 120.124 16.4071 120.124 14.2857V12.1429H115.099C110.727 12.1429 109.928 12.3493 108.949 13.7307ZM126.366 13.2264C125.4 14.1786 125.189 16.0486 125.189 23.6221V32.8571H127.36H129.531L129.587 27.3214L129.644 21.7857L131.216 26.1614C132.08 28.5679 133.234 31.0586 133.78 31.6971C134.326 32.335 135.68 32.8571 136.788 32.8571C138.347 32.8571 138.73 32.5743 138.481 31.6071C138.304 30.9193 138.799 28.5893 139.582 26.4286L141.003 22.5L141.056 27.6786L141.109 32.8571H143.28H145.451V22.5V12.1429H142.709H139.966L137.771 18.75L135.575 25.3571L133.402 18.9286C131.482 13.2493 131.014 12.475 129.385 12.2829C128.372 12.1629 127.013 12.5879 126.366 13.2264ZM152.108 13C151.52 13.5807 151.24 16.9207 151.24 23.3571V32.8571H153.411H155.582V22.5C155.582 13.0029 155.474 12.1429 154.279 12.1429C153.563 12.1429 152.586 12.5286 152.108 13ZM161.516 13C160.927 13.5807 160.647 16.9207 160.647 23.3571V32.8571H162.818H164.989L164.994 26.6071L164.999 20.3571L169.155 26.5936C172.697 31.9093 173.605 32.8321 175.301 32.8436L177.291 32.8571V22.5V12.1429H175.149H173.008L172.797 17.9979L172.587 23.8529L168.697 17.9979C166.391 14.5286 164.313 12.1429 163.595 12.1429C162.929 12.1429 161.993 12.5286 161.516 13ZM183.493 13.265C182.577 14.17 182.356 16.18 182.356 23.6221V32.8571H187.132C189.9 32.8571 192.879 32.4021 194.219 31.7743C195.49 31.1786 197.087 29.7629 197.765 28.6286C198.557 27.305 199 25.0386 199 22.3079C199 19.0714 198.637 17.595 197.489 16.1536C196.658 15.1107 195.045 13.7814 193.906 13.2C192.767 12.6186 190.214 12.1429 188.233 12.1429C185.923 12.1429 184.223 12.5457 183.493 13.265ZM192.751 17.9093C194.29 19.1036 194.658 19.99 194.658 22.5C194.658 25.01 194.29 25.8964 192.751 27.0907C191.703 27.905 189.912 28.5714 188.771 28.5714H186.698V22.5V16.4286H188.771C189.912 16.4286 191.703 17.095 192.751 17.9093Z" fill="#EDC18D"/>
</svg>
