<?xml version="1.0" encoding="utf-8"?>
<!-- Generator: Adobe Illustrator 21.1.0, SVG Export Plug-In . SVG Version: 6.00 Build 0)  -->
<svg version="1.1" xmlns="http://www.w3.org/2000/svg" xmlns:xlink="http://www.w3.org/1999/xlink" x="0px" y="0px"
	 viewBox="0 0 64 64" style="enable-background:new 0 0 64 64;" xml:space="preserve">
<style type="text/css">
	.st0{display:none;}
	.st1{display:inline;}
	.st2{fill:#F9BA00;}
	.st3{fill:#C48700;}
	.st4{fill:none;}
	.st5{fill:#D79B00;}
	.st6{fill:#747474;}
	.st7{fill:#5B5B5B;}
	.st8{fill:none;stroke:#000000;stroke-width:2;stroke-linecap:round;stroke-miterlimit:10;}
	.st9{fill:none;stroke:#000000;stroke-width:2;stroke-linecap:round;stroke-linejoin:round;stroke-miterlimit:10;}
</style>
<g id="Layer_1" class="st0">
</g>
<g id="Layer_2">
	<g>
		<g>
			<path class="st2" d="M43.3,40.5h-2.9c-0.4-2-3-3.6-6.3-3.9c-3.4,0.4-6,2-6.3,3.9h-3c-1.6,0-2.9,1.3-2.9,3v6c0,1.7,1.3,3,2.9,3
				h18.7c1.6,0,2.9-1.3,2.9-3v-6C46.2,41.9,44.9,40.5,43.3,40.5z"/>
		</g>
		<g>
			<path class="st2" d="M57.1,11.4H10.9c-1.6,0-2.9,1.3-2.9,3v14c0,1.7,1.3,3,2.9,3h16.8c0,0.2-0.1,0.4-0.1,0.6c0,2.2,2.7,4,6.4,4.4
				c3.6-0.4,6.4-2.2,6.4-4.4c0-0.2,0-0.4-0.1-0.6h16.8c1.6,0,1.9-1.8,1.9-3.4V14C59,12.3,58.7,11.4,57.1,11.4z"/>
		</g>
	</g>
	<g>
		<g>
			<path class="st3" d="M41.3,40.6h-2.9c1.6,0,2.9,1.3,2.9,3v6c0,1.7-1.3,3-2.9,3h2.9c1.6,0,2.9-1.3,2.9-3v-6
				C44.3,41.9,43,40.6,41.3,40.6z"/>
		</g>
	</g>
	<g>
		<g>
			<path class="st3" d="M38.3,31.6h-2.9c0,0.2,0.1,0.4,0.1,0.6c0,1.9-2,3.5-4.9,4.2c0.5,0.1,1,0.2,1.5,0.3c3.6-0.4,6.4-2.2,6.4-4.4
				C38.4,32,38.4,31.7,38.3,31.6z"/>
		</g>
	</g>
	<g>
		<g>
			<path class="st3" d="M32,36.6c-0.5,0.1-1,0.1-1.4,0.3c2.6,0.6,4.6,2,4.9,3.7h2.9C37.9,38.6,35.3,37,32,36.6z"/>
		</g>
	</g>
	<g>
		<g>
			<path class="st3" d="M55.1,11.6h-2.9c1.6,0,2.9,1.3,2.9,3v14c0,1.7-1.3,3-2.9,3h2.9c1.6,0,3.9-0.9,3.9-2.6V15
				C59,13.3,56.7,11.6,55.1,11.6z"/>
		</g>
	</g>
	<g>
		<g>
			<path class="st4" d="M20.8,41.5c-1.1,0-2,0.9-2,2v6c0,1.1,0.9,2,2,2h21.5c1.1,0,2-0.9,2-2v-6c0-1.1-0.9-2-2-2H20.8z"/>
		</g>
		<g>
			<path class="st4" d="M17.5,12.5H6.9c-1.1,0-1.9,0.9-1.9,2v14c0,1.1,0.9,2,1.9,2h10.5c-1.1-2.8-1.7-5.8-1.7-9
				C15.8,18.3,16.4,15.2,17.5,12.5z"/>
		</g>
		<g>
			<path class="st4" d="M37.6,39.5c-1.1-1.1-3.3-2-6.1-2s-5,0.9-6.1,2H37.6z"/>
		</g>
		<g>
			<path class="st4" d="M31.5,35.5c3.7,0,6.4-1.6,6.8-3.1H24.7C25.1,34,27.8,35.5,31.5,35.5z"/>
		</g>
		<g>
			<path class="st4" d="M19.6,12.5c-1.2,2.7-1.8,5.8-1.8,9c0,3.2,0.6,6.3,1.8,9h23.8c1.2-2.7,1.8-5.8,1.8-9c0-3.2-0.6-6.3-1.8-9
				H19.6z"/>
		</g>
		<g>
			<path d="M59,22c0.6,0,1-0.4,1-1v-6.5c0-2.2-1.8-4-3.9-4H44.7H18.4H6.9c-2.2,0-3.9,1.8-3.9,4v14c0,2.2,1.8,4,3.9,4h11.4h4.3
				c0.2,1.7,1.6,3.2,3.7,4.1c-1.6,0.7-2.8,1.8-3.4,3h-2.2c-2.2,0-4,1.8-4,4v6c0,2.2,1.8,4,4,4h21.5c2.2,0,4-1.8,4-4v-6
				c0-2.2-1.8-4-4-4H40c-0.5-1.2-1.8-2.3-3.4-3c2.1-0.9,3.5-2.4,3.7-4.1h4.3h11.4c2.2,0,3.9-1.8,3.9-4c0-0.6-0.4-1-1-1s-1,0.4-1,1
				c0,1.1-0.9,2-1.9,2H45.6c1.1-2.8,1.7-5.8,1.7-9c0-3.2-0.6-6.2-1.7-9h10.5c1.1,0,1.9,0.9,1.9,2V21C58,21.6,58.5,22,59,22z
				 M6.9,30.5c-1.1,0-1.9-0.9-1.9-2v-14c0-1.1,0.9-2,1.9-2h10.5c-1.1,2.8-1.7,5.8-1.7,9c0,3.2,0.6,6.2,1.7,9H6.9z M44.3,43.5v6
				c0,1.1-0.9,2-2,2H20.8c-1.1,0-2-0.9-2-2v-6c0-1.1,0.9-2,2-2h21.5C43.4,41.5,44.3,42.4,44.3,43.5z M37.6,39.5H25.4
				c1.1-1.1,3.3-2,6.1-2S36.6,38.5,37.6,39.5z M31.5,35.5c-3.7,0-6.4-1.6-6.8-3.1h13.6C37.9,34,35.2,35.5,31.5,35.5z M43.4,30.5
				H19.6c-1.2-2.7-1.8-5.8-1.8-9c0-3.2,0.6-6.3,1.8-9h23.8c1.2,2.7,1.8,5.8,1.8,9C45.2,24.6,44.6,27.7,43.4,30.5z"/>
		</g>
	</g>
	<g>
		<g>
			<ellipse class="st6" cx="31.5" cy="21.5" rx="4.9" ry="5"/>
		</g>
	</g>
	<g>
		<g>
			<path class="st7" d="M31.5,16.5c-0.5,0-0.9,0.1-1.3,0.2c2.1,0.6,3.6,2.5,3.6,4.8s-1.5,4.2-3.6,4.8c0.4,0.1,0.8,0.2,1.3,0.2
				c2.7,0,4.9-2.2,4.9-5S34.2,16.5,31.5,16.5z"/>
		</g>
	</g>
	<g>
		<g>
			<path d="M31.5,27.5c-3.3,0-5.9-2.7-5.9-6s2.7-6,5.9-6s5.9,2.7,5.9,6S34.8,27.5,31.5,27.5z M31.5,17.5c-2.2,0-3.9,1.8-3.9,4
				s1.8,4,3.9,4s3.9-1.8,3.9-4S33.7,17.5,31.5,17.5z"/>
		</g>
	</g>
	<g>
		<g>
			<path d="M41.3,23.5c-1.1,0-2-0.9-2-2s0.9-2,2-2s2,0.9,2,2S42.4,23.5,41.3,23.5z M41.3,21.5L41.3,21.5
				C41.3,21.5,41.3,21.5,41.3,21.5z"/>
		</g>
	</g>
	<g>
		<g>
			<path d="M50.2,26.5c-0.6,0-1-0.4-1-1v-8c0-0.6,0.4-1,1-1s1,0.4,1,1v8C51.2,26,50.7,26.5,50.2,26.5z"/>
		</g>
	</g>
	<g>
		<g>
			<path d="M54.1,24c-0.6,0-1-0.4-1-1v-3c0-0.6,0.4-1,1-1s1,0.4,1,1v3C55.1,23.5,54.7,24,54.1,24z"/>
		</g>
	</g>
	<g>
		<g>
			<path d="M12.8,26.5c-0.6,0-1-0.4-1-1v-8c0-0.6,0.4-1,1-1s1,0.4,1,1v8C13.8,26,13.4,26.5,12.8,26.5z"/>
		</g>
	</g>
	<g>
		<g>
			<path d="M8.9,24c-0.6,0-1-0.4-1-1v-3c0-0.6,0.4-1,1-1s1,0.4,1,1v3C9.9,23.5,9.5,24,8.9,24z"/>
		</g>
	</g>
	<g>
		<g>
			<path d="M59,25.8c-0.3,0-0.5-0.1-0.7-0.3c0,0-0.1-0.1-0.1-0.2c0,0-0.1-0.1-0.1-0.2c0-0.1,0-0.1,0-0.2c0-0.1,0-0.1,0-0.2
				c0-0.1,0-0.3,0.1-0.4c0.1-0.1,0.1-0.2,0.2-0.3c0,0,0.1-0.1,0.2-0.1c0.1,0,0.1-0.1,0.2-0.1c0.1,0,0.1-0.1,0.2-0.1
				c0.1,0,0.3,0,0.4,0c0.1,0,0.1,0,0.2,0.1c0.1,0,0.1,0,0.2,0.1c0.1,0,0.1,0.1,0.2,0.1c0.2,0.2,0.3,0.5,0.3,0.7c0,0.1,0,0.1,0,0.2
				c0,0.1,0,0.1-0.1,0.2c0,0.1-0.1,0.1-0.1,0.2c0,0.1-0.1,0.1-0.1,0.2c0,0-0.1,0.1-0.2,0.1c0,0-0.1,0.1-0.2,0.1
				c-0.1,0-0.1,0.1-0.2,0.1C59.1,25.8,59.1,25.8,59,25.8z"/>
		</g>
	</g>
</g>
</svg>
